<svg width="517" height="676" viewBox="0 0 517 676" fill="none" xmlns="http://www.w3.org/2000/svg">
<path d="M327 605.5L296.5 672L269 571.5L248 596L220 522.5L199.5 537L146 444L139.5 474.5L50.5 364L39.5 371L19.5 299.5L2 288L51.5 197L12.5 228.5L39.5 132.5L33 127L121.5 81L215.5 2L267.5 41.5L328 24.5L362.5 98L427 153L436 174.5L485.5 216L515.5 241.5V258L500.5 285V304L457 351L386.5 336V387L422 464.5L409.5 545.5L396 521L352 624L327 605.5Z" fill="url(#paint0_linear_1599_291)"/>
<path d="M327 605.5L296.5 672L269 571.5M327 605.5L352 624L396 521M327 605.5L327.5 466M327 605.5L268 453M396 521L409.5 545.5L422 464.5M396 521L353.5 420.5M396 521L327.5 466M422 464.5L386.5 387M422 464.5L353.5 420.5M386.5 387V336M386.5 387L353.5 420.5M386.5 336L457 351L500.5 304M386.5 336L353.5 420.5M386.5 336L378 314.5M500.5 304V285M500.5 304L449.5 323.5M500.5 285L515.5 258V241.5M500.5 285L449.5 323.5M500.5 285L459 255.5M500.5 285L494 255.5M515.5 241.5L494 255.5M515.5 241.5L485.5 216M427 153L436 174.5L485.5 216M427 153L362.5 98M427 153L390.5 164M362.5 98L328 24.5M362.5 98L306.5 161M362.5 98L296 108.5M362.5 98L305 85.5M328 24.5L267.5 41.5M328 24.5L305 85.5M267.5 41.5L215.5 2M267.5 41.5L305 85.5M267.5 41.5L241 83M215.5 2L121.5 81M215.5 2L211.5 67.5M121.5 81L33 127L39.5 132.5M121.5 81H137.5M39.5 132.5L12.5 228.5L51.5 197M39.5 132.5L111.5 131.5M51.5 197L2 288L19.5 299.5M51.5 197L111.5 131.5M51.5 197L94.5 198.792M19.5 299.5L39.5 371L50.5 364M19.5 299.5L108.5 262M50.5 364L139.5 474.5L146 444M50.5 364L108.5 262M50.5 364L177.5 259M50.5 364L167.5 346.5M146 444L199.5 537L220 522.5M146 444L167.5 346.5M146 444L191 404.4M220 522.5L248 596L269 571.5M220 522.5L191 404.4M220 522.5L268 453M269 571.5L268 453M449.5 323.5L378 314.5M449.5 323.5L399 275M378 314.5L399 275M378 314.5L304.5 267.5M378 314.5L342.5 215M378 314.5L315.5 371M399 275L459 255.5M399 275L342.5 215M459 255.5H494M459 255.5L392 187M494 255.5L485.5 216M485.5 216L392 187M392 187L397.5 175.5L390.5 164M392 187L360.5 174.5M390.5 164L360.5 174.5M360.5 174.5L306.5 161M306.5 161L296 108.5M306.5 161L238.5 166M306.5 161L249 221M306.5 161L342.5 215M296 108.5L305 85.5M296 108.5L231.5 103M296 108.5L234.5 131.5M231.5 103L234.5 131.5M231.5 103L241 83M234.5 131.5L238.5 166M234.5 131.5L208.5 124M238.5 166L207 201M207 201L249 221M207 201L177.5 259M207 201L208.5 124M207 201H147.476M249 221L342.5 215M249 221L226.5 326M249 221L177.5 259M342.5 215L304.5 267.5M304.5 267.5L315.5 371M304.5 267.5L226.5 326M304.5 267.5L273.5 349.764M315.5 371L273.5 349.764M315.5 371L268 453M315.5 371L353.5 420.5M315.5 371L327.5 466M226.5 326L273.5 349.764M226.5 326L221 378M226.5 326L177.5 259M226.5 326L167.5 346.5M273.5 349.764L268 453M268 453L221 378M221 378L191 404.4M177.5 259L147.476 201M177.5 259L108.5 262M177.5 259L167.5 346.5M111.5 131.5L161.5 97M111.5 131.5L147.476 201M161.5 97L208.5 124M161.5 97L137.5 81M208.5 124L211.5 67.5M208.5 124L147.476 201M147.476 201L108.5 262M147.476 201L94.5 198.792M137.5 81L211.5 67.5M211.5 67.5L241 83M108.5 262L94.5 198.792" stroke="black" stroke-width="2.5"/>
<defs>
<linearGradient id="paint0_linear_1599_291" x1="120" y1="72" x2="419.5" y2="578.5" gradientUnits="userSpaceOnUse">
<stop stop-color="#C1850D"/>
<stop offset="0.331731" stop-color="#FFE16B"/>
<stop offset="0.990385" stop-color="#CB9425"/>
</linearGradient>
</defs>
</svg>
