<svg width="515" height="673" viewBox="0 0 515 673" fill="none" xmlns="http://www.w3.org/2000/svg">
<path d="M214.462 0.241211L266.264 39.5898L326.523 22.6582L326.932 22.5439L327.111 22.9268L361.564 96.3281L425.983 151.259L426.074 151.337L426.12 151.446L435.072 172.834L514.481 239.757L514.659 239.907V256.77L514.597 256.883L499.659 283.77V302.836L499.526 302.979L456.026 349.979L455.833 350.188L455.555 350.129L385.659 335.257V385.531L421.113 462.932L421.176 463.067L421.153 463.216L408.653 544.216L408.43 545.666L407.722 544.381L394.716 520.778L351.119 622.836L350.87 623.418L350.361 623.042L325.855 604.907L295.613 670.848L295.04 672.099L294.677 670.771L267.425 571.18L247.039 594.965L246.491 595.604L246.192 594.817L218.422 521.92L198.448 536.048L198 536.365L197.726 535.889L144.876 444.02L138.648 473.244L138.429 474.271L137.77 473.453L49.0498 363.301L38.4277 370.062L37.8594 370.423L37.6777 369.774L17.7275 298.454L0.384766 287.058L0 286.805L0.219727 286.4L48.5195 197.606L11.4736 227.528L10.2529 228.514L10.6777 227.004L37.5898 131.313L31.3359 126.021L30.7676 125.54L31.4287 125.196L119.879 79.2217L213.838 0.256836L214.144 0L214.462 0.241211ZM388.989 163.17L359.989 173.67L358.688 174.141L359.989 174.61L390.489 185.61L390.907 185.761L391.106 185.363L396.736 174.104L396.575 173.862L389.575 163.362L389.357 163.036L388.989 163.17Z" fill="black"/>
</svg>
